<?xml version="1.0" encoding="UTF-8" standalone="no"?>
<svg width="134px" height="46px" viewBox="0 0 134 46" version="1.1" xmlns="http://www.w3.org/2000/svg" xmlns:xlink="http://www.w3.org/1999/xlink">
    <!-- Generator: Sketch 39.1 (31720) - http://www.bohemiancoding.com/sketch -->
    <title>logo_h46</title>
    <desc>Created with Sketch.</desc>
    <defs></defs>
    <g id="Page-1" stroke="none" stroke-width="1" fill="none" fill-rule="evenodd">
        <g id="logo_h46" fill="#00CC99">
            <g id="Page-1-Copy-2" transform="translate(0.000000, 8.000000)">
                <path d="M31.3185372,16.0792884 L24.7991896,27.3892419 C24.6526249,27.6435503 24.0691488,27.9808141 23.7758869,27.9808141 L10.7371916,27.9808141 C10.4439297,27.9808141 9.86058614,27.6435503 9.71402141,27.3892419 L3.19454128,16.0792884 C3.04797655,15.8248473 3.04797655,15.1503196 3.1946738,14.8958785 L9.71402141,3.58592497 C9.86058614,3.33161659 10.4439297,2.99435272 10.7371916,2.99435272 L23.7758869,2.99435272 C24.0691488,2.99435272 24.6526249,3.33161659 24.7991896,3.58592497 L31.3185372,14.8958785 C31.4652345,15.1503196 31.4652345,15.8248473 31.3185372,16.0792884 M34.1031346,13.7634364 L27.1707288,1.73674737 C26.6240928,0.788532849 25.2823496,0.0126003036 24.1890775,0.0126003036 L10.3241335,0.0126003036 C9.23086137,0.0126003036 7.88911825,0.788532849 7.34248216,1.73674737 L0.409943935,13.7634364 C-0.136692151,14.7116509 -0.136692151,16.263516 0.409943935,17.2117305 L7.34248216,29.2384195 C7.88911825,30.186634 9.23086137,30.9625666 10.3241335,30.9625666 L24.1890775,30.9625666 C25.2823496,30.9625666 26.6240928,30.186634 27.1707288,29.2384195 L34.1031346,17.2117305 C34.6497706,16.263516 34.6497706,14.7116509 34.1031346,13.7634364" id="Fill-1"></path>
                <polygon id="Fill-4" points="6.95440367 17.8793298 17.2566055 17.8793298 17.2566055 15.6893047 6.95440367 15.6893047"></polygon>
                <polygon id="Fill-6" points="8.97437309 21.8070403 17.2566055 21.8070403 17.2566055 19.6170152 8.97437309 19.6170152"></polygon>
                <polygon id="Fill-7" points="10.9943425 25.7347509 17.2566055 25.7347509 17.2566055 23.5447258 10.9943425 23.5447258"></polygon>
                <path d="M54.0153843,14.4915467 C55.6666891,17.3466759 57.1017248,20.1228314 58.2616534,22.8202787 C58.3992069,23.1353769 58.3010112,23.3914107 57.9864139,23.5291832 L57.200053,23.8637925 C56.8854557,24.0016977 56.6495739,23.8835691 56.5120204,23.5686037 C55.2735087,20.6151225 53.8973109,17.8584781 52.4820204,15.3382237 C52.3051091,15.0232583 52.3836922,14.7672244 52.6785443,14.6098081 L53.3076065,14.2749333 C53.6025912,14.117517 53.838473,14.1962251 54.0153843,14.4915467 M47.862316,15.2593828 C46.9384016,18.212864 45.6409195,20.9497318 43.8519286,23.5882475 C43.6554047,23.8637925 43.4193904,23.903213 43.1245382,23.7457966 L42.5152212,23.4110546 C42.2006239,23.2338616 42.1415209,22.9779605 42.3383099,22.6825062 C43.8321835,20.3787325 45.0706952,17.6812852 45.9947421,14.6490958 C46.0930703,14.3143538 46.3288196,14.1962251 46.6631621,14.3143538 L47.528106,14.6098081 C47.8427034,14.7081601 47.9606442,14.9444174 47.862316,15.2593828 M58.5957309,11.242744 L58.5957309,11.2820317 C58.5957309,11.6365503 58.4188196,11.8137432 58.0651295,11.8137432 L42.3383099,11.8137432 C41.9844873,11.8137432 41.8074434,11.6365503 41.8074434,11.2820317 L41.8074434,11.242744 C41.8074434,10.8883581 41.9844873,10.7111651 42.3383099,10.7111651 L49.1990234,10.7111651 L49.1990234,7.58049101 C49.1990234,7.22610512 49.3759348,7.04891218 49.7297574,7.04891218 L50.6734169,7.04891218 C51.0272396,7.04891218 51.2042834,7.22610512 51.2042834,7.58049101 L51.2042834,10.7111651 L58.0651295,10.7111651 C58.4188196,10.7111651 58.5957309,10.8883581 58.5957309,11.242744" id="Fill-8"></path>
                <path d="M74.9710398,18.7643654 L79.571264,18.7643654 L79.571264,15.8305281 L74.9710398,15.8305281 L74.9710398,18.7643654 Z M74.9710398,14.8852336 L79.571264,14.8852336 L79.571264,12.0894342 L74.9710398,12.0894342 L74.9710398,14.8852336 Z M69.1325688,11.0852082 L73.6343323,11.0852082 C74.2633945,10.5142089 74.9710398,9.78579324 75.7771458,8.86027534 L70.7249032,8.86027534 C70.3514679,9.49033894 69.8402141,10.2188873 69.1325688,11.0852082 L69.1325688,11.0852082 Z M69.0342406,14.8852336 L73.0446279,14.8852336 L73.0446279,12.0894342 L69.0342406,12.0894342 L69.0342406,14.8852336 Z M68.8377166,18.7642327 L73.0446279,18.7642327 L73.0446279,15.8305281 L69.0342406,15.8305281 C69.0146279,16.8938185 68.9556575,17.8388475 68.8377166,18.7642327 L68.8377166,18.7642327 Z M71.5506218,7.30469384 C71.4719062,7.46237565 71.3933231,7.65921246 71.2752497,7.89560245 L77.2121814,7.89560245 C77.5660041,7.89560245 77.7429154,8.07279539 77.7429154,8.42718128 L77.7429154,8.466469 C77.7429154,8.74214671 77.6840775,8.91933965 77.5266463,9.13595305 C77.0942406,9.66753188 76.4651784,10.3173721 75.6592049,11.0852082 L80.9866871,11.0852082 C81.3405097,11.0852082 81.517421,11.2624011 81.517421,11.6169197 L81.517421,21.9343273 C81.517421,24.0214876 81.2617941,24.2970326 78.9225892,24.2970326 C78.6865749,24.2970326 77.8806014,24.2577448 76.5437615,24.2183244 C76.1899388,24.1986805 75.9934149,24.0214876 75.9934149,23.6866128 C75.9738022,23.3520035 76.1703262,23.1748106 76.5437615,23.1944545 C77.8018858,23.2338749 78.5096636,23.2928065 78.7063201,23.2928065 C79.5516514,23.2928065 79.571264,23.2731626 79.571264,21.9932589 L79.571264,19.7290383 L68.6802854,19.7290383 C68.4051784,21.3435514 67.8352192,22.820292 66.8718145,24.238101 C66.6752905,24.5332898 66.3999185,24.5727103 66.1248114,24.3560969 L65.5547197,23.8835824 C65.2992253,23.666969 65.2598675,23.4308444 65.4170336,23.155034 C66.6161876,21.1860023 67.0880836,18.8429409 67.0880836,14.7870143 L67.0880836,13.1920123 L66.2623649,13.8614964 C65.9675127,14.0977537 65.6924057,14.0386893 65.535107,13.7039473 L65.3384506,13.3102737 C65.200897,13.0148194 65.2401223,12.798206 65.4957492,12.5815926 C67.3239653,11.0459204 68.759001,9.11630919 69.8009888,6.83231206 C69.9385423,6.53685776 70.1546789,6.43837299 70.4692762,6.4974373 L71.1966667,6.63534252 C71.5702345,6.7140507 71.707788,6.97008455 71.5506218,7.30469384 L71.5506218,7.30469384 Z" id="Fill-9"></path>
                <path d="M95.4352263,10.3567394 C96.339528,10.7701896 97.0473058,11.163996 97.5582946,11.4594503 C97.9318624,11.163996 98.3644006,10.7505458 98.8557768,10.1795465 C98.5020866,9.94328923 98.1089062,9.64783493 97.6173976,9.31322563 C97.0669185,9.64783493 96.339528,10.0022208 95.4352263,10.3567394 M99.7208532,7.6592921 C99.4258685,7.95448094 99.0720459,8.2695791 98.619895,8.62396499 L99.6814954,9.35264608 C99.9764801,9.56912675 100.015705,9.82502787 99.7798236,10.1007056 L99.5439419,10.3961599 L99.5635545,10.4158037 C99.9371223,10.5535762 100.015705,10.8488978 99.7404659,11.1245755 C99.4456137,11.4396737 99.0720459,11.7546391 98.619895,12.109025 L99.6814954,12.8375734 C99.9764801,13.0541868 99.9960928,13.2905768 99.7798236,13.5857656 L99.7208532,13.6646065 C99.5045841,13.9402842 99.2489572,13.9599281 98.9542375,13.7434474 C98.3644006,13.3102206 97.9122497,12.9951224 97.6173976,12.7785091 C97.0866636,13.0936072 96.398631,13.4479931 95.592525,13.7630913 C95.2976728,13.8812199 95.0814037,13.8220229 94.8651346,13.625186 C94.6096402,13.3889288 94.6882232,13.1330277 95.061791,12.9753459 C95.5335545,12.7588652 96.0448084,12.4831875 96.5951549,12.1484455 C96.0250632,11.8138362 95.5532997,11.5380257 95.1797319,11.3608328 C94.8455219,11.1836398 94.7669388,10.9277387 95.0026881,10.6324171 L95.1601193,10.4354476 L94.9242375,10.2188342 C94.6292528,9.94328923 94.6882232,9.64783493 95.061791,9.49041858 C95.5335545,9.29344904 96.0448084,9.01777133 96.5951549,8.66338544 C96.0250632,8.32864342 95.5532997,8.05309844 95.1797319,7.87590549 C94.8455219,7.69857982 94.7865515,7.4426787 95.0026881,7.1472244 C95.1601193,6.93074373 95.3763884,6.89132328 95.6711081,7.0292285 C96.4770815,7.38361439 97.0866636,7.69857982 97.5582946,7.97425753 C97.8730245,7.71822368 98.2071019,7.42290211 98.5805372,7.0292285 C98.7771937,6.79283851 99.0130754,6.7337742 99.3080601,6.85203556 L99.5439419,6.95038759 C99.9173772,7.10780395 99.9960928,7.38361439 99.7208532,7.6592921 M89.9701906,8.09238616 C91.0907615,7.97425753 92.4078563,7.73800027 93.9216075,7.4426787 C94.2754302,7.3638378 94.4916993,7.52138688 94.5506697,7.83648504 C94.6096402,8.15145047 94.4719541,8.36806387 94.118264,8.42712819 C93.2335749,8.60432113 92.3292732,8.74209362 91.4641967,8.87999884 L91.5035545,9.94328923 L93.9608328,9.94328923 C94.314788,9.94328923 94.4916993,10.1204822 94.4916993,10.4748681 C94.4916993,10.6324171 94.314788,10.7111253 93.9608328,10.7111253 L91.5429123,10.7111253 L91.6018828,12.1484455 L93.9608328,12.1484455 C94.314788,12.1484455 94.4916993,12.3256384 94.4916993,12.680157 C94.4916993,12.8375734 94.314788,12.9361909 93.9608328,12.9361909 L91.6411081,12.9361909 L91.7000785,14.4324426 L103.062821,14.4324426 L103.102046,12.9361909 L100.802066,12.9361909 C100.448111,12.9361909 100.2712,12.7588652 100.2712,12.4044793 C100.2712,12.2469302 100.448111,12.1484455 100.802066,12.1484455 L103.141404,12.1484455 L103.180629,10.7111253 L100.802066,10.7111253 C100.448111,10.7111253 100.2712,10.5339324 100.2712,10.1795465 C100.2712,10.0219974 100.448111,9.94328923 100.802066,9.94328923 L103.219987,9.94328923 L103.278957,8.56490068 L100.683993,8.56490068 C100.33017,8.56490068 100.153391,8.38770773 100.153391,8.03332185 C100.153391,7.777288 100.33017,7.63951551 100.683993,7.63951551 L104.753351,7.63951551 C105.107173,7.63951551 105.30383,7.83648504 105.284085,8.19087093 L105.008978,14.4324426 L105.63804,14.4324426 C105.991862,14.4324426 106.168774,14.6097683 106.168774,14.9641541 L106.168774,17.1300227 C106.168774,17.4844085 105.991862,17.6616015 105.63804,17.6616015 L104.753351,17.6616015 C104.399528,17.6616015 104.222617,17.4844085 104.222617,17.1300227 L104.222617,15.3381839 L90.5402824,15.3381839 L90.5402824,17.1300227 C90.5402824,17.4844085 90.3635036,17.6616015 90.0095484,17.6616015 L89.1248593,17.6616015 C88.7710367,17.6616015 88.5941254,17.4844085 88.5941254,17.1300227 L88.5941254,14.9641541 C88.5941254,14.6097683 88.7710367,14.4324426 89.1248593,14.4324426 L89.7343089,14.4324426 L89.4788145,8.66338544 C89.4590693,8.32864342 89.6359806,8.13167388 89.9701906,8.09238616 M103.161149,17.189087 C103.161149,17.4844085 103.062821,17.6616015 102.807194,17.8191506 C101.509712,18.6264071 99.9371223,19.4140198 98.1089062,20.162212 L105.736235,20.162212 C106.090191,20.162212 106.267102,20.339405 106.267102,20.6939236 C106.267102,20.9891124 106.090191,21.1466615 105.736235,21.1466615 L98.678998,21.1466615 L98.678998,23.1551136 C98.678998,24.2969795 98.3840133,24.4940817 96.1036463,24.4940817 C95.3172854,24.4940817 94.4129837,24.4743052 93.3711284,24.4152408 C93.0566636,24.395597 92.8600071,24.218404 92.8403945,23.8835293 C92.8207819,23.54892 93.0173058,23.371727 93.3907411,23.3913709 C94.6686106,23.4307914 95.4941967,23.4897229 95.8873772,23.4897229 C96.7523211,23.4897229 96.6541254,23.5882077 96.6541254,22.6824664 L96.6541254,21.1466615 L89.0266636,21.1466615 C88.672841,21.1466615 88.4959297,20.9694686 88.4959297,20.6150827 C88.4959297,20.3197611 88.672841,20.162212 89.0266636,20.162212 L96.6541254,20.162212 L96.6541254,19.7881823 C96.6541254,19.4337964 96.8310367,19.2564707 97.1848593,19.2564707 L97.7352059,19.2564707 C98.6986106,18.8626644 99.760211,18.3508621 101.057693,17.6616015 L92.1326167,17.6616015 C91.7787941,17.6616015 91.6018828,17.4844085 91.6018828,17.1300227 C91.6018828,16.8937654 91.7787941,16.7558602 92.1326167,16.7558602 L102.630282,16.7558602 C102.984105,16.7558602 103.161149,16.9134093 103.161149,17.189087" id="Fill-10"></path>
                <path d="M127.281834,12.5225283 C127.281834,12.8572703 127.104923,13.0344633 126.7511,13.0344633 L121.305677,13.0344633 C120.951722,13.0344633 120.77481,12.8572703 120.77481,12.5030172 C120.77481,12.187919 120.951722,12.0303699 121.305677,12.0303699 L126.7511,12.0303699 C127.104923,12.0303699 127.281834,12.2075629 127.281834,12.5225283 M129.581813,9.56917984 L129.581813,12.2075629 C129.581813,12.5619487 129.404902,12.7391417 129.051212,12.7391417 L128.146778,12.7391417 C127.792955,12.7391417 127.615911,12.5619487 127.615911,12.2075629 L127.615911,10.0416944 L120.401375,10.0416944 L120.401375,12.2075629 C120.401375,12.5619487 120.224464,12.7391417 119.870509,12.7391417 L119.025177,12.7391417 C118.671355,12.7391417 118.494443,12.5619487 118.494443,12.2075629 L118.494443,9.56917984 C118.494443,9.21466123 118.671355,9.03746828 119.025177,9.03746828 L122.819296,9.03746828 L122.819296,7.38353475 C122.819296,7.02914886 122.996207,6.85195592 123.350162,6.85195592 L124.293689,6.85195592 C124.647644,6.85195592 124.824556,7.02914886 124.824556,7.38353475 L124.824556,9.03746828 L129.051212,9.03746828 C129.404902,9.03746828 129.581813,9.21466123 129.581813,9.56917984 M129.306574,16.1454935 C129.306574,16.5000121 129.129663,16.6772051 128.77584,16.6772051 L126.08268,16.6772051 L126.08268,22.1705845 C126.08268,23.0763258 125.944994,23.0565492 127.045952,23.0565492 C127.675014,23.0565492 127.773343,23.0565492 127.969866,22.5249704 C128.04845,22.3084897 128.127165,21.4420362 128.166523,20.0244926 C128.186136,19.6503301 128.382792,19.4730045 128.736615,19.5124249 L129.50323,19.5912658 C129.83744,19.6306863 129.994739,19.8078792 129.994739,20.1622651 C129.974994,20.7529082 129.974994,21.1074269 129.916023,21.69807 C129.857186,22.4659061 129.857186,23.2535188 129.208378,23.7654537 C128.972496,23.9622905 128.579316,23.9820671 128.323689,24.0411315 C128.146778,24.0804192 127.281834,24.1001958 126.986849,24.1001958 C124.529571,24.1001958 124.136523,23.8638058 124.136523,22.6627429 L124.136523,16.6772051 L122.996207,16.6772051 C122.956982,20.7923287 121.679245,22.7021634 117.649245,24.238101 C117.35426,24.3560969 117.118511,24.2773887 116.941467,24.001711 L116.882496,23.8835824 C116.685972,23.5686169 116.784168,23.3125831 117.118511,23.1748106 C120.008195,22.0130354 121.010825,20.3591019 121.089408,16.6772051 L119.261192,16.6772051 C118.907369,16.6772051 118.730458,16.5000121 118.730458,16.1454935 C118.730458,15.8107515 118.907369,15.6335586 119.261192,15.6335586 L128.77584,15.6335586 C129.129663,15.6335586 129.306574,15.8107515 129.306574,16.1454935 M118.219204,9.13595305 C117.177349,11.7941127 116.705453,12.7391417 116.332017,13.6843035 C117.767053,15.4367218 118.101396,16.5000121 118.101396,18.0554609 C118.101396,19.7092617 117.315035,20.5559387 115.349133,20.5559387 C115.05428,20.5559387 114.877369,20.3985224 114.818266,20.0834242 C114.759428,19.7684588 114.936339,19.5714892 115.309775,19.5714892 L115.152609,19.5714892 C115.99794,19.5714892 116.332017,19.2171033 116.332017,17.7601393 C116.332017,16.3621069 115.938837,15.4170779 114.896982,14.0386893 C114.700458,13.8024321 114.680713,13.5858187 114.798786,13.3102737 C115.427848,11.8728208 116.115748,10.2975955 116.587644,8.64366194 L114.248174,8.64366194 L114.248174,23.8245181 C114.248174,24.1789039 114.071396,24.3560969 113.717573,24.3560969 L113.049153,24.3560969 C112.69533,24.3560969 112.518286,24.1789039 112.518286,23.8245181 L112.518286,8.23021174 C112.518286,7.87582586 112.69533,7.69850018 113.049153,7.69850018 L117.826156,7.69850018 C118.179846,7.69850018 118.35689,7.87582586 118.35689,8.23021174 L118.35689,8.466469 C118.35689,8.70285899 118.317532,8.88005193 118.219204,9.13595305" id="Fill-11"></path>
            </g>
        </g>
    </g>
</svg>